
<svg width="100" height="100" viewBox="0 0 100 100" xmlns="http://www.w3.org/2000/svg">
  <g fill="currentColor" fill-rule="evenodd">
    <path d="M50 0L62.5 12.5L50 25L37.5 12.5L50 0zM0 50L12.5 37.5L25 50L12.5 62.5L0 50zM100 50L87.5 62.5L75 50L87.5 37.5L100 50zM50 100L37.5 87.5L50 75L62.5 87.5L50 100z"/>
    <path d="M25 25L37.5 12.5L50 25L37.5 37.5L25 25zM75 25L62.5 12.5L50 25L62.5 37.5L75 25zM25 75L12.5 62.5L25 50L37.5 62.5L25 75zM75 75L87.5 62.5L75 50L62.5 62.5L75 75z"/>
    <circle cx="50" cy="50" r="8"/>
    <path d="M37.5 37.5L25 25L37.5 12.5L50 25L37.5 37.5zM62.5 37.5L75 25L62.5 12.5L50 25L62.5 37.5zM37.5 62.5L25 75L37.5 87.5L50 75L37.5 62.5zM62.5 62.5L75 75L62.5 87.5L50 75L62.5 62.5z" fill-opacity="0.3"/>
  </g>
</svg>
